<svg width="40" height="40" viewBox="0 0 40 40" fill="none" xmlns="http://www.w3.org/2000/svg">
<g clip-path="url(#clip0)">
<path d="M29.0214 3.79532C28.9205 3.48774 28.5894 3.32032 28.282 3.4211L28.074 3.4893V3.26172C28.074 2.93805 27.8116 2.67578 27.488 2.67578C27.1644 2.67578 26.9021 2.93805 26.9021 3.26172V3.48938L26.6941 3.42118C26.3866 3.32063 26.0555 3.4879 25.9547 3.7954C25.854 4.1029 26.0216 4.43392 26.329 4.53478L26.5449 4.60564L26.4091 4.79447C26.129 5.18361 26.4112 5.72283 26.8841 5.72283C27.2255 5.72283 27.3584 5.4815 27.4881 5.30127L27.6162 5.47908C27.8051 5.74158 28.1712 5.8015 28.4341 5.61228C28.6966 5.42322 28.7563 5.05712 28.5673 4.79439L28.4313 4.60556L28.6473 4.5347C28.9547 4.43384 29.1223 4.10282 29.0214 3.79532Z" fill="white"/>
<path d="M34.8154 10.0849C34.7146 9.77729 34.3834 9.60987 34.076 9.71065L33.868 9.77885V9.55127C33.868 9.2276 33.6056 8.96533 33.282 8.96533C32.9585 8.96533 32.6961 9.2276 32.6961 9.55127V9.77885L32.4881 9.71065C32.1806 9.61026 31.8496 9.77737 31.7487 10.0849C31.648 10.3923 31.8156 10.7233 32.123 10.8242L32.3389 10.895L32.203 11.0839C32.014 11.3465 32.0736 11.7127 32.3363 11.9018C32.5992 12.0911 32.9651 12.0309 33.1542 11.7686L33.2821 11.5907C33.4052 11.7618 33.5399 12.0123 33.8862 12.0123C34.3581 12.0123 34.6417 11.4737 34.3613 11.0839L34.2253 10.8951L34.4413 10.8242C34.7487 10.7234 34.9163 10.3924 34.8154 10.0849Z" fill="white"/>
<path d="M26.9921 9.31641C27.3157 9.31641 27.578 9.05408 27.578 8.73047C27.578 8.40687 27.3157 8.14453 26.9921 8.14453C26.6685 8.14453 26.4062 8.40687 26.4062 8.73047C26.4062 9.05408 26.6685 9.31641 26.9921 9.31641Z" fill="white"/>
<path d="M36.3672 18.8013C36.6908 18.8013 36.9531 18.5389 36.9531 18.2153C36.9531 17.8917 36.6908 17.6294 36.3672 17.6294C36.0436 17.6294 35.7812 17.8917 35.7812 18.2153C35.7812 18.5389 36.0436 18.8013 36.3672 18.8013Z" fill="white"/>
<path d="M30.2734 14.3164C30.597 14.3164 30.8593 14.0541 30.8593 13.7305C30.8593 13.4069 30.597 13.1445 30.2734 13.1445C29.9498 13.1445 29.6874 13.4069 29.6874 13.7305C29.6874 14.0541 29.9498 14.3164 30.2734 14.3164Z" fill="white"/>
<path d="M36.6024 6.66016C36.926 6.66016 37.1883 6.39783 37.1883 6.07422C37.1883 5.75062 36.926 5.48828 36.6024 5.48828C36.2788 5.48828 36.0164 5.75062 36.0164 6.07422C36.0164 6.39783 36.2788 6.66016 36.6024 6.66016Z" fill="white"/>
<path d="M25.7767 10.1163C25.4716 9.73859 25.0393 9.7007 25.0393 9.7007C24.7034 9.6543 24.4194 9.89234 24.3752 10.1968C24.3281 10.5186 24.5516 10.8141 24.8705 10.8609L23.8252 11.8796C23.6869 12.0148 23.6237 12.2085 23.6565 12.3984L23.9034 13.8375C23.9034 13.8375 23.9034 13.8375 23.9026 13.8375C22.1811 12.9318 22.4838 12.9378 20.7752 13.8367H20.7744C20.7736 13.8375 20.7736 13.8375 20.7728 13.8375L21.0197 12.3984C21.0525 12.2085 20.9892 12.0149 20.8517 11.8796L19.8057 10.8609L21.251 10.6508C21.4416 10.6227 21.6065 10.5031 21.6916 10.3304L22.3385 9.02101L22.5932 9.53742C22.6924 9.73898 22.894 9.86469 23.119 9.86469C23.5527 9.86469 23.8355 9.40844 23.6447 9.01859L23.3893 8.50226C22.959 7.621 21.7064 7.64319 21.2869 8.50226L20.7776 9.53508C19.6152 9.70391 19.2518 9.68023 18.8995 10.1163C18.7261 10.3295 18.6339 10.5881 18.6339 10.8639C18.6293 11.4717 18.9844 11.6959 19.8128 12.5038L19.6182 13.6398C19.6065 13.7054 19.6011 13.7734 19.6011 13.8414C19.6003 14.1554 19.73 14.4601 19.9557 14.6773C20.1825 14.8969 20.4757 15.0109 20.7745 15.0109C21.1403 15.0109 21.2691 14.9012 22.3377 14.339H22.3385L23.358 14.8749C24.1333 15.2861 25.0773 14.7154 25.0752 13.8414C25.0752 13.7734 25.0698 13.7054 25.058 13.6398L24.8635 12.5038L25.6884 11.6999C26.1284 11.275 26.1612 10.5891 25.7767 10.1163Z" fill="white"/>
<path d="M39.4141 20.5275H31.6154L31.8934 20.2565C32.6765 19.4933 32.2437 18.1625 31.162 18.0054L29.6571 17.7867L28.9841 16.4231C28.5002 15.4424 27.1009 15.4428 26.6173 16.4231L25.9442 17.7867L24.4394 18.0054C23.3573 18.1625 22.9252 19.4936 23.7079 20.2565L23.986 20.5275H21.8896C21.9239 20.1891 21.812 19.8385 21.5533 19.5797L18.2388 16.2651C17.7818 15.8082 17.0385 15.8082 16.5816 16.2651C15.4488 17.3979 15.1143 17.7324 14.5422 18.3046L12.2961 16.0585C11.7469 15.5092 10.9712 15.3014 10.2209 15.5024C9.47068 15.7034 8.90279 16.2714 8.70177 17.0215L7.52715 21.4052C6.82582 21.703 6.27558 22.253 5.97769 22.9547L1.59407 24.1293C-0.00335946 24.5572 -0.539456 26.5531 0.630941 27.7238L2.87705 29.9699C1.72493 31.122 0.948756 31.8982 0.837661 32.0093C0.379612 32.4672 0.379612 33.2086 0.837661 33.6666L4.15221 36.9812C4.38065 37.2097 4.68073 37.3239 4.98081 37.3239C5.28089 37.3239 5.58097 37.2097 5.80941 36.9812L21.0907 21.6994H38.8281V35.5667C38.8273 35.8886 38.5648 36.1518 38.2422 36.1526H18.4768C18.1542 36.1518 17.8917 35.8886 17.8909 35.5667V28.094C17.8909 27.7713 17.6284 27.5081 17.3049 27.5081C16.9823 27.5081 16.7198 27.7706 16.719 28.0924C16.719 28.0932 16.719 28.094 16.719 28.094V35.5667C16.719 36.0362 16.9018 36.4776 17.2338 36.8097C17.5659 37.1409 18.0073 37.3245 18.4768 37.3245H38.2422C39.2093 37.3245 40 36.5423 40 35.5667V21.1135C40 20.7874 39.7334 20.5275 39.4141 20.5275ZM9.83349 17.325C10.028 16.5989 10.9352 16.355 11.4673 16.8871L13.7134 19.1332C12.9067 19.9399 11.9816 20.865 11.0049 21.8418L11.7119 19.2033C11.7956 18.8907 11.6101 18.5694 11.2976 18.4857C10.985 18.4018 10.6637 18.5874 10.58 18.9L9.89943 21.4399C9.55138 21.279 9.17943 21.1897 8.80239 21.1735L9.83349 17.325ZM8.17794 22.4144C8.81318 22.2291 9.49373 22.409 9.95115 22.8956C9.12935 23.7173 8.28934 24.5573 7.4677 25.3791C6.47488 24.4436 6.88512 22.7915 8.17794 22.4144ZM1.45938 26.8952C1.20977 26.6456 1.11524 26.2929 1.20665 25.9519C1.29798 25.6109 1.55618 25.3527 1.89712 25.2613L5.74574 24.2301C5.76191 24.6072 5.85128 24.9791 6.01207 25.3273L3.47221 26.0078C3.15955 26.0915 2.97408 26.4129 3.05791 26.7255C3.14166 27.0381 3.46291 27.2235 3.77549 27.1399L6.41394 26.4329C5.43714 27.4097 4.51182 28.3351 3.70541 29.1414L1.45938 26.8952ZM4.98058 36.1526L1.6661 32.8381C1.79009 32.7141 2.74142 31.7628 4.11979 30.3844C4.11979 30.3843 4.11979 30.3843 4.11979 30.3843L4.11987 30.3842C5.19331 29.3108 13.6641 20.8399 14.9562 19.5477L14.9563 19.5475C15.9839 18.5199 14.6465 19.8574 17.4099 17.0939L20.725 20.4078L4.98058 36.1526ZM31.0754 19.4174L29.9365 20.5276H25.6648C24.4402 19.3339 24.4493 19.3861 24.4884 19.2658C24.528 19.1439 24.47 19.1851 26.4175 18.9021C26.6084 18.8745 26.7734 18.7546 26.8587 18.5816C27.7324 16.8113 27.6741 16.8592 27.8006 16.8592C27.9273 16.8592 27.8688 16.8113 28.7425 18.5816C28.8279 18.7546 28.9928 18.8744 29.1837 18.9021L30.9935 19.1651C31.1157 19.1829 31.164 19.331 31.0754 19.4174Z" fill="white"/>
</g>
<defs>
<clipPath id="clip0">
<rect width="40" height="40" fill="white"/>
</clipPath>
</defs>
</svg>
